<svg width="48" height="32" fill="none" xmlns="http://www.w3.org/2000/svg"><rect width="48" height="32" rx="4" fill="#F2F0EC"/><path fill="#fff" d="M4.65 3.2h38.71v25.6H4.65z" opacity=".01"/><path fill="#F26122" d="M18.9 7.66h10.21v16.68H18.9z"/><path d="M20 16a10.58 10.58 0 0 1 4-8.34 10.61 10.61 0 1 0 0 16.68A10.58 10.58 0 0 1 20 16Z" fill="#EA1D25"/><path fill-rule="evenodd" clip-rule="evenodd" d="M40.14 22.23v.34h-.06v-.34h-.14v-.07h.35v.07h-.15Zm.68-.07v.41h-.07v-.31l-.11.27h-.08l-.12-.27v.31h-.07v-.41h.1l.13.29.12-.29h.1Z" fill="#F69E1E"/><path d="M41.16 16A10.61 10.61 0 0 1 24 24.34c4.6-3.622 5.397-10.286 1.78-14.89A10.399 10.399 0 0 0 24 7.66 10.61 10.61 0 0 1 41.16 16Z" fill="#F69E1E"/></svg>