<svg width="48" height="32" fill="none" xmlns="http://www.w3.org/2000/svg"><rect width="48" height="32" rx="4" fill="#2A2A6C"/><path fill-rule="evenodd" clip-rule="evenodd" d="M30.35 17.67c.006-1.525-1.251-2.183-2.227-2.694C27.505 14.652 27 14.388 27 14c0-.33.32-.68 1-.77a4.48 4.48 0 0 1 2.36.41l.42-2a6.44 6.44 0 0 0-2.24-.41c-2.36 0-4 1.26-4 3.06 0 1.33 1.19 2.07 2.09 2.51.9.44 1.25.75 1.24 1.15 0 .62-.74.9-1.43.91a5 5 0 0 1-2.44-.6l-.43 2c.848.33 1.75.497 2.66.49 2.51 0 4.16-1.24 4.17-3.16l-.05.08Zm-6.49-6.28-2 9.25h-2.4l2-9.25h2.4Zm10.06 6 1.26-3.47.73 3.47h-1.99Zm4.89 3.28h-2.22l-.29-1.38h-3.01l-.49 1.38h-2.52l3.59-8.57a1.09 1.09 0 0 1 1-.68h2l1.94 9.25Zm-22.2-.06 3.88-9.25h-2.6l-2.49 6.29-1-5.35a1.12 1.12 0 0 0-1.11-.94H9.22l-.06.27a9.89 9.89 0 0 1 2.36.78 1 1 0 0 1 .57.81L14 20.61h2.61Z" fill="#fff"/></svg>